General 
ID                                      : 1 (0x1) 
Complete name                            : C:UsersStVnChNcDownloadsWWE.WrestleMania.29.2013.PPV.1080i.HDTV.x264-StVnChNc.ts 
Format                                  : MPEG-TS 
File size                                : 21.9 GiB 
Duration                                : 3h 50mn 
Overall bit rate mode                    : Variable 
Overall bit rate                        : 13.6 Mbps 

Video 
ID                                      : 100 (0x64) 
Menu ID                                  : 2 (0x2) 
Format                                  : AVC 
Format/Info                              : Advanced Video Codec 
Format profile                          : High@L4.0 
Format settings, CABAC                  : Yes 
Format settings, ReFrames                : 2 frames 
Format settings, GOP                    : M=3, N=15 
Codec ID                                : 27 
Duration                                : 3h 50mn 
Bit rate mode                            : Variable 
Bit rate                                : 12.7 Mbps 
Maximum bit rate                        : 25.9 Mbps 
Width                                    : 1 920 pixels 
Height                                  : 1 080 pixels 
Display aspect ratio                    : 16:9 
Frame rate                              : 29.970 fps 
Color space                              : YUV 
Chroma subsampling                      : 4:2:0 
Bit depth                                : 8 bits 
Scan type                                : Interlaced 
Scan order                              : Top Field First 
Bits/(Pixel*Frame)                      : 0.204 
Stream size                              : 20.5 GiB (93%) 
Color primaries                          : BT.709 
Transfer characteristics                : BT.709 
Matrix coefficients                      : BT.709 

Audio 
ID                                      : 101 (0x65) 
Menu ID                                  : 2 (0x2) 
Format                                  : AAC 
Format/Info                              : Advanced Audio Codec 
Format version                          : Version 4 
Format profile                          : LC 
Muxing mode                              : ADTS 
Codec ID                                : 15 
Duration                                : 3h 50mn 
Bit rate mode                            : Variable 
Bit rate                                : 220 Kbps 
Channel(s)                              : 2 channels 
Channel positions                        : Front: L R 
Sampling rate                            : 48.0 KHz 
Compression mode                        : Lossy 
Delay relative to video                  : -178ms 
Stream size                              : 363 MiB (2%) 
Language                                : usa 





